<svg xmlns="http://www.w3.org/2000/svg" xmlns:xlink="http://www.w3.org/1999/xlink" width="1800" zoomAndPan="magnify" viewBox="0 0 1350 374.999991" height="500" preserveAspectRatio="xMidYMid meet" version="1.0"><defs><g/><clipPath id="f63a9e9178"><path d="M 1197 0.015625 L 1331 0.015625 L 1331 137.507812 L 1197 137.507812 Z M 1197 0.015625 " clip-rule="nonzero"/></clipPath></defs><path fill="#000000" d="M 736.015625 -0.332031 C 736.132812 -0.0390625 750.960938 20.136719 769.015625 44.535156 L 801.839844 88.820312 L 907.054688 88.996094 C 1025.21875 89.230469 1013.847656 88.761719 1023.988281 93.804688 C 1034.949219 99.203125 1042.804688 109.113281 1045.734375 121.140625 C 1046.847656 125.597656 1046.789062 136.800781 1045.617188 141.316406 C 1042.042969 155.335938 1031.609375 166.183594 1016.953125 171.113281 L 1012.851562 172.460938 L 938.644531 172.753906 L 864.5 173.046875 L 937.648438 271.585938 C 977.859375 325.78125 1011.796875 371.535156 1013.144531 373.175781 L 1015.488281 376.285156 L 1067.949219 376.285156 C 1096.789062 376.285156 1120.410156 376.167969 1120.410156 375.992188 C 1120.410156 375.816406 1101.652344 350.417969 1078.734375 319.507812 C 1055.757812 288.65625 1036.648438 262.847656 1036.238281 262.144531 C 1035.417969 260.96875 1035.535156 260.851562 1041.691406 259.269531 C 1061.5 254.109375 1079.496094 243.375 1094.617188 227.539062 C 1103.703125 218.09375 1110.503906 208.359375 1116.597656 196.214844 C 1133.949219 161.492188 1136.761719 121.960938 1124.511719 84.65625 C 1108.980469 37.441406 1071.171875 4.652344 1026.507812 -0.214844 C 1019.183594 -1.039062 735.722656 -1.097656 736.015625 -0.332031 Z M 736.015625 -0.332031 " fill-opacity="1" fill-rule="nonzero"/><path fill="#ff5757" d="M 727.460938 257.519531 L 727.460938 386.039062 L 821.542969 386.039062 L 821.542969 255 L 774.75 191.96875 C 749.042969 157.351562 727.828125 129 727.707031 129 C 727.585938 129 727.460938 186.804688 727.460938 257.519531 Z M 727.460938 257.519531 " fill-opacity="1" fill-rule="nonzero"/><g clip-path="url(#f63a9e9178)"><path fill="#ff5757" d="M 1197.988281 14.378906 L 1197.988281 28.523438 L 1246.042969 28.523438 C 1298.242188 28.523438 1295.875 28.390625 1299.890625 32.074219 C 1306.210938 37.796875 1304.300781 49.375 1296.464844 52.925781 C 1293.898438 54.113281 1291.199219 54.175781 1245.910156 54.175781 L 1197.988281 54.175781 L 1197.988281 83.121094 L 1245.714844 83.121094 C 1287.316406 83.121094 1293.769531 83.253906 1295.941406 84.109375 C 1301.140625 86.277344 1303.511719 90.09375 1303.511719 95.949219 C 1303.511719 101.800781 1301.140625 105.617188 1295.941406 107.789062 C 1293.769531 108.644531 1287.316406 108.777344 1245.714844 108.777344 L 1197.988281 108.777344 L 1197.988281 137.0625 L 1247.886719 137.0625 C 1302.128906 137.0625 1301.339844 137.128906 1309.238281 133.3125 C 1314.898438 130.613281 1322.269531 122.851562 1325.628906 116.011719 C 1332.738281 101.472656 1331.683594 83.910156 1322.796875 70.886719 L 1321.152344 68.453125 L 1322.730469 66.347656 C 1323.652344 65.226562 1325.300781 62.269531 1326.417969 59.769531 C 1337.148438 36.085938 1324.96875 7.339844 1301.601562 1.222656 C 1298.308594 0.367188 1290.542969 0.238281 1247.886719 0.238281 L 1197.988281 0.238281 Z M 1197.988281 14.378906 " fill-opacity="1" fill-rule="nonzero"/></g><g fill="#000000" fill-opacity="1"><g transform="translate(137.551114, 76.608541)"><g><path d="M 7.4375 -74.421875 L 39.328125 -74.421875 C 43.015625 -74.421875 46.398438 -73.832031 49.484375 -72.65625 C 52.566406 -71.488281 55.207031 -69.84375 57.40625 -67.71875 C 59.601562 -65.59375 61.300781 -63.023438 62.5 -60.015625 C 63.707031 -57.003906 64.3125 -53.65625 64.3125 -49.96875 C 64.3125 -45.289062 63.492188 -41.441406 61.859375 -38.421875 C 60.234375 -35.410156 58.46875 -33.019531 56.5625 -31.25 C 54.289062 -29.195312 51.738281 -27.640625 48.90625 -26.578125 L 66.984375 0 L 48.90625 0 L 31.890625 -25.515625 L 23.390625 -25.515625 L 23.390625 0 L 7.4375 0 Z M 38.265625 -39.875 C 41.242188 -39.875 43.671875 -40.757812 45.546875 -42.53125 C 47.429688 -44.300781 48.375 -46.78125 48.375 -49.96875 C 48.375 -53.15625 47.429688 -55.632812 45.546875 -57.40625 C 43.671875 -59.175781 41.242188 -60.0625 38.265625 -60.0625 L 23.390625 -60.0625 L 23.390625 -39.875 Z M 38.265625 -39.875 "/></g></g></g><g fill="#000000" fill-opacity="1"><g transform="translate(207.182867, 76.608541)"><g><path d="M 31.359375 1.0625 C 27.109375 1.0625 23.28125 0.40625 19.875 -0.90625 C 16.476562 -2.21875 13.570312 -4.113281 11.15625 -6.59375 C 8.75 -9.070312 6.90625 -12.117188 5.625 -15.734375 C 4.351562 -19.347656 3.71875 -23.492188 3.71875 -28.171875 C 3.71875 -32.847656 4.351562 -36.992188 5.625 -40.609375 C 6.90625 -44.222656 8.75 -47.269531 11.15625 -49.75 C 13.570312 -52.226562 16.476562 -54.125 19.875 -55.4375 C 23.28125 -56.75 27.109375 -57.40625 31.359375 -57.40625 C 35.472656 -57.40625 39.191406 -56.710938 42.515625 -55.328125 C 45.847656 -53.953125 48.703125 -52.003906 51.078125 -49.484375 C 53.453125 -46.972656 55.273438 -44 56.546875 -40.5625 C 57.828125 -37.125 58.46875 -33.347656 58.46875 -29.234375 C 58.46875 -28.453125 58.429688 -27.707031 58.359375 -27 C 58.296875 -26.289062 58.226562 -25.65625 58.15625 -25.09375 C 58.082031 -24.457031 58.007812 -23.890625 57.9375 -23.390625 L 19.140625 -23.390625 C 19.703125 -20.203125 20.941406 -17.539062 22.859375 -15.40625 C 24.773438 -13.28125 27.609375 -12.21875 31.359375 -12.21875 C 34.265625 -12.21875 36.410156 -12.695312 37.796875 -13.65625 C 39.179688 -14.613281 40.40625 -15.910156 41.46875 -17.546875 L 57.40625 -17.546875 C 56.769531 -15.128906 55.796875 -12.804688 54.484375 -10.578125 C 53.171875 -8.347656 51.46875 -6.363281 49.375 -4.625 C 47.289062 -2.882812 44.757812 -1.5 41.78125 -0.46875 C 38.800781 0.550781 35.328125 1.0625 31.359375 1.0625 Z M 43.0625 -34.546875 C 42.769531 -35.753906 42.320312 -36.925781 41.71875 -38.0625 C 41.125 -39.195312 40.347656 -40.222656 39.390625 -41.140625 C 38.429688 -42.066406 37.273438 -42.796875 35.921875 -43.328125 C 34.578125 -43.859375 33.054688 -44.125 31.359375 -44.125 C 27.890625 -44.125 25.179688 -43.203125 23.234375 -41.359375 C 21.285156 -39.515625 19.921875 -37.242188 19.140625 -34.546875 Z M 43.0625 -34.546875 "/></g></g></g><g fill="#000000" fill-opacity="1"><g transform="translate(269.373051, 76.608541)"><g><path d="M 31.359375 1.0625 C 27.109375 1.0625 23.28125 0.40625 19.875 -0.90625 C 16.476562 -2.21875 13.570312 -4.113281 11.15625 -6.59375 C 8.75 -9.070312 6.90625 -12.117188 5.625 -15.734375 C 4.351562 -19.347656 3.71875 -23.492188 3.71875 -28.171875 C 3.71875 -32.847656 4.351562 -36.992188 5.625 -40.609375 C 6.90625 -44.222656 8.75 -47.269531 11.15625 -49.75 C 13.570312 -52.226562 16.476562 -54.125 19.875 -55.4375 C 23.28125 -56.75 27.109375 -57.40625 31.359375 -57.40625 C 35.328125 -57.40625 38.800781 -56.851562 41.78125 -55.75 C 44.757812 -54.65625 47.289062 -53.171875 49.375 -51.296875 C 51.46875 -49.421875 53.171875 -47.257812 54.484375 -44.8125 C 55.796875 -42.363281 56.769531 -39.828125 57.40625 -37.203125 L 42.53125 -37.203125 C 41.46875 -39.335938 40.082031 -41.023438 38.375 -42.265625 C 36.675781 -43.503906 34.335938 -44.125 31.359375 -44.125 C 27.609375 -44.125 24.546875 -42.789062 22.171875 -40.125 C 19.796875 -37.46875 18.609375 -33.484375 18.609375 -28.171875 C 18.609375 -22.859375 19.796875 -18.867188 22.171875 -16.203125 C 24.546875 -13.546875 27.609375 -12.21875 31.359375 -12.21875 C 34.335938 -12.21875 36.675781 -12.835938 38.375 -14.078125 C 40.082031 -15.328125 41.46875 -17.015625 42.53125 -19.140625 L 57.40625 -19.140625 C 56.769531 -16.441406 55.796875 -13.882812 54.484375 -11.46875 C 53.171875 -9.0625 51.46875 -6.921875 49.375 -5.046875 C 47.289062 -3.171875 44.757812 -1.679688 41.78125 -0.578125 C 38.800781 0.515625 35.328125 1.0625 31.359375 1.0625 Z M 31.359375 1.0625 "/></g></g></g><g fill="#000000" fill-opacity="1"><g transform="translate(329.968614, 76.608541)"><g><path d="M 28.703125 0 C 22.816406 0 18.421875 -1.414062 15.515625 -4.25 C 12.609375 -7.082031 11.15625 -11.160156 11.15625 -16.484375 L 11.15625 -42.53125 L 2.125 -42.53125 L 2.125 -56.34375 L 11.15625 -56.34375 L 13.296875 -71.234375 L 26.046875 -71.234375 L 26.046875 -56.34375 L 39.328125 -56.34375 L 39.328125 -42.53125 L 26.046875 -42.53125 L 26.046875 -19.140625 C 26.046875 -17.503906 26.523438 -16.207031 27.484375 -15.25 C 28.441406 -14.300781 29.734375 -13.828125 31.359375 -13.828125 L 39.328125 -13.828125 L 39.328125 0 Z M 28.703125 0 "/></g></g></g><g fill="#000000" fill-opacity="1"><g transform="translate(373.55491, 76.608541)"><g><path d="M 22.859375 1.0625 C 19.804688 1.0625 17.054688 0.617188 14.609375 -0.265625 C 12.171875 -1.148438 10.097656 -2.367188 8.390625 -3.921875 C 6.691406 -5.484375 5.398438 -7.328125 4.515625 -9.453125 C 3.628906 -11.585938 3.1875 -13.929688 3.1875 -16.484375 C 3.1875 -19.035156 3.644531 -21.375 4.5625 -23.5 C 5.488281 -25.625 6.875 -27.460938 8.71875 -29.015625 C 10.5625 -30.578125 12.828125 -31.800781 15.515625 -32.6875 C 18.210938 -33.570312 21.367188 -34.015625 24.984375 -34.015625 L 38.265625 -34.015625 L 38.265625 -36.671875 C 38.265625 -39.367188 37.414062 -41.375 35.71875 -42.6875 C 34.019531 -44 31.679688 -44.65625 28.703125 -44.65625 C 26.578125 -44.65625 24.769531 -44.191406 23.28125 -43.265625 C 21.789062 -42.347656 20.765625 -41.21875 20.203125 -39.875 L 5.3125 -39.875 C 5.8125 -42.132812 6.679688 -44.3125 7.921875 -46.40625 C 9.160156 -48.5 10.753906 -50.359375 12.703125 -51.984375 C 14.648438 -53.617188 16.988281 -54.929688 19.71875 -55.921875 C 22.445312 -56.910156 25.617188 -57.40625 29.234375 -57.40625 C 36.742188 -57.40625 42.609375 -55.597656 46.828125 -51.984375 C 51.046875 -48.367188 53.15625 -43.085938 53.15625 -36.140625 L 53.15625 0 L 40.40625 0 L 38.796875 -6.375 L 38.265625 -6.375 C 37.703125 -5.59375 36.992188 -4.757812 36.140625 -3.875 C 35.296875 -2.988281 34.234375 -2.171875 32.953125 -1.421875 C 31.679688 -0.679688 30.210938 -0.0820312 28.546875 0.375 C 26.878906 0.832031 24.984375 1.0625 22.859375 1.0625 Z M 26.578125 -11.15625 C 30.046875 -11.15625 32.859375 -12.128906 35.015625 -14.078125 C 37.179688 -16.035156 38.265625 -18.609375 38.265625 -21.796875 L 38.265625 -23.390625 L 25.515625 -23.390625 C 22.816406 -23.390625 20.898438 -22.820312 19.765625 -21.6875 C 18.640625 -20.550781 18.078125 -19.171875 18.078125 -17.546875 C 18.078125 -15.703125 18.75 -14.175781 20.09375 -12.96875 C 21.4375 -11.757812 23.597656 -11.15625 26.578125 -11.15625 Z M 26.578125 -11.15625 "/></g></g></g><g fill="#000000" fill-opacity="1"><g transform="translate(432.555851, 76.608541)"><g><path d="M 6.375 -56.34375 L 19.140625 -56.34375 L 20.734375 -49.96875 L 21.265625 -49.96875 C 23.109375 -52.375 25.304688 -54.210938 27.859375 -55.484375 C 30.410156 -56.765625 33.171875 -57.40625 36.140625 -57.40625 C 39.191406 -57.40625 41.992188 -56.890625 44.546875 -55.859375 C 47.097656 -54.835938 49.273438 -53.332031 51.078125 -51.34375 C 52.890625 -49.363281 54.304688 -46.972656 55.328125 -44.171875 C 56.359375 -41.367188 56.875 -38.160156 56.875 -34.546875 L 56.875 0 L 42 0 L 42 -32.421875 C 42 -36.179688 41.109375 -39.070312 39.328125 -41.09375 C 37.554688 -43.113281 35.078125 -44.125 31.890625 -44.125 C 28.703125 -44.125 26.132812 -43.039062 24.1875 -40.875 C 22.238281 -38.71875 21.265625 -35.898438 21.265625 -32.421875 L 21.265625 0 L 6.375 0 Z M 6.375 -56.34375 "/></g></g></g><g fill="#000000" fill-opacity="1"><g transform="translate(495.277576, 76.608541)"><g><path d="M 31.359375 21.265625 C 27.109375 21.265625 23.457031 20.765625 20.40625 19.765625 C 17.363281 18.773438 14.796875 17.410156 12.703125 15.671875 C 10.609375 13.941406 8.921875 11.925781 7.640625 9.625 C 6.367188 7.320312 5.414062 4.820312 4.78125 2.125 L 20.203125 2.125 C 20.765625 3.96875 22.019531 5.398438 23.96875 6.421875 C 25.914062 7.453125 28.378906 7.96875 31.359375 7.96875 C 35.117188 7.96875 38.007812 7.082031 40.03125 5.3125 C 42.050781 3.539062 43.0625 1.0625 43.0625 -2.125 L 43.0625 -10.09375 L 42.53125 -10.09375 C 41.957031 -9.457031 41.226562 -8.734375 40.34375 -7.921875 C 39.457031 -7.109375 38.375 -6.347656 37.09375 -5.640625 C 35.820312 -4.929688 34.390625 -4.34375 32.796875 -3.875 C 31.203125 -3.414062 29.484375 -3.1875 27.640625 -3.1875 C 24.023438 -3.1875 20.742188 -3.769531 17.796875 -4.9375 C 14.859375 -6.113281 12.34375 -7.851562 10.25 -10.15625 C 8.164062 -12.457031 6.554688 -15.289062 5.421875 -18.65625 C 4.285156 -22.019531 3.71875 -25.898438 3.71875 -30.296875 C 3.71875 -34.691406 4.285156 -38.570312 5.421875 -41.9375 C 6.554688 -45.300781 8.164062 -48.132812 10.25 -50.4375 C 12.34375 -52.75 14.859375 -54.488281 17.796875 -55.65625 C 20.742188 -56.820312 24.023438 -57.40625 27.640625 -57.40625 C 31.109375 -57.40625 34.132812 -56.625 36.71875 -55.0625 C 39.3125 -53.507812 41.425781 -51.8125 43.0625 -49.96875 L 43.59375 -49.96875 L 45.1875 -56.34375 L 57.9375 -56.34375 L 57.9375 -2.125 C 57.9375 5.382812 55.773438 11.160156 51.453125 15.203125 C 47.128906 19.242188 40.429688 21.265625 31.359375 21.265625 Z M 30.828125 -16.484375 C 34.585938 -16.484375 37.566406 -17.722656 39.765625 -20.203125 C 41.960938 -22.679688 43.0625 -26.046875 43.0625 -30.296875 C 43.0625 -34.546875 41.960938 -37.910156 39.765625 -40.390625 C 37.566406 -42.878906 34.585938 -44.125 30.828125 -44.125 C 27.078125 -44.125 24.101562 -42.878906 21.90625 -40.390625 C 19.707031 -37.910156 18.609375 -34.546875 18.609375 -30.296875 C 18.609375 -26.046875 19.707031 -22.679688 21.90625 -20.203125 C 24.101562 -17.722656 27.078125 -16.484375 30.828125 -16.484375 Z M 30.828125 -16.484375 "/></g></g></g><g fill="#000000" fill-opacity="1"><g transform="translate(559.593923, 76.608541)"><g><path d="M 6.90625 -74.421875 L 21.796875 -74.421875 L 21.796875 0 L 6.90625 0 Z M 6.90625 -74.421875 "/></g></g></g><g fill="#000000" fill-opacity="1"><g transform="translate(588.297083, 76.608541)"><g><path d="M 31.359375 1.0625 C 27.109375 1.0625 23.28125 0.40625 19.875 -0.90625 C 16.476562 -2.21875 13.570312 -4.113281 11.15625 -6.59375 C 8.75 -9.070312 6.90625 -12.117188 5.625 -15.734375 C 4.351562 -19.347656 3.71875 -23.492188 3.71875 -28.171875 C 3.71875 -32.847656 4.351562 -36.992188 5.625 -40.609375 C 6.90625 -44.222656 8.75 -47.269531 11.15625 -49.75 C 13.570312 -52.226562 16.476562 -54.125 19.875 -55.4375 C 23.28125 -56.75 27.109375 -57.40625 31.359375 -57.40625 C 35.472656 -57.40625 39.191406 -56.710938 42.515625 -55.328125 C 45.847656 -53.953125 48.703125 -52.003906 51.078125 -49.484375 C 53.453125 -46.972656 55.273438 -44 56.546875 -40.5625 C 57.828125 -37.125 58.46875 -33.347656 58.46875 -29.234375 C 58.46875 -28.453125 58.429688 -27.707031 58.359375 -27 C 58.296875 -26.289062 58.226562 -25.65625 58.15625 -25.09375 C 58.082031 -24.457031 58.007812 -23.890625 57.9375 -23.390625 L 19.140625 -23.390625 C 19.703125 -20.203125 20.941406 -17.539062 22.859375 -15.40625 C 24.773438 -13.28125 27.609375 -12.21875 31.359375 -12.21875 C 34.265625 -12.21875 36.410156 -12.695312 37.796875 -13.65625 C 39.179688 -14.613281 40.40625 -15.910156 41.46875 -17.546875 L 57.40625 -17.546875 C 56.769531 -15.128906 55.796875 -12.804688 54.484375 -10.578125 C 53.171875 -8.347656 51.46875 -6.363281 49.375 -4.625 C 47.289062 -2.882812 44.757812 -1.5 41.78125 -0.46875 C 38.800781 0.550781 35.328125 1.0625 31.359375 1.0625 Z M 43.0625 -34.546875 C 42.769531 -35.753906 42.320312 -36.925781 41.71875 -38.0625 C 41.125 -39.195312 40.347656 -40.222656 39.390625 -41.140625 C 38.429688 -42.066406 37.273438 -42.796875 35.921875 -43.328125 C 34.578125 -43.859375 33.054688 -44.125 31.359375 -44.125 C 27.890625 -44.125 25.179688 -43.203125 23.234375 -41.359375 C 21.285156 -39.515625 19.921875 -37.242188 19.140625 -34.546875 Z M 43.0625 -34.546875 "/></g></g></g><g fill="#000000" fill-opacity="1"><g transform="translate(650.503548, 76.608541)"><g/></g></g><g fill="#000000" fill-opacity="1"><g transform="translate(178.481098, 223.749243)"><g><path d="M 7.4375 -74.421875 L 39.328125 -74.421875 C 43.015625 -74.421875 46.398438 -73.832031 49.484375 -72.65625 C 52.566406 -71.488281 55.207031 -69.84375 57.40625 -67.71875 C 59.601562 -65.59375 61.300781 -63.023438 62.5 -60.015625 C 63.707031 -57.003906 64.3125 -53.65625 64.3125 -49.96875 C 64.3125 -45.289062 63.492188 -41.441406 61.859375 -38.421875 C 60.234375 -35.410156 58.46875 -33.019531 56.5625 -31.25 C 54.289062 -29.195312 51.738281 -27.640625 48.90625 -26.578125 L 66.984375 0 L 48.90625 0 L 31.890625 -25.515625 L 23.390625 -25.515625 L 23.390625 0 L 7.4375 0 Z M 38.265625 -39.875 C 41.242188 -39.875 43.671875 -40.757812 45.546875 -42.53125 C 47.429688 -44.300781 48.375 -46.78125 48.375 -49.96875 C 48.375 -53.15625 47.429688 -55.632812 45.546875 -57.40625 C 43.671875 -59.175781 41.242188 -60.0625 38.265625 -60.0625 L 23.390625 -60.0625 L 23.390625 -39.875 Z M 38.265625 -39.875 "/></g></g></g><g fill="#000000" fill-opacity="1"><g transform="translate(248.112851, 223.749243)"><g><path d="M 31.359375 1.0625 C 27.109375 1.0625 23.28125 0.40625 19.875 -0.90625 C 16.476562 -2.21875 13.570312 -4.113281 11.15625 -6.59375 C 8.75 -9.070312 6.90625 -12.117188 5.625 -15.734375 C 4.351562 -19.347656 3.71875 -23.492188 3.71875 -28.171875 C 3.71875 -32.847656 4.351562 -36.992188 5.625 -40.609375 C 6.90625 -44.222656 8.75 -47.269531 11.15625 -49.75 C 13.570312 -52.226562 16.476562 -54.125 19.875 -55.4375 C 23.28125 -56.75 27.109375 -57.40625 31.359375 -57.40625 C 35.472656 -57.40625 39.191406 -56.710938 42.515625 -55.328125 C 45.847656 -53.953125 48.703125 -52.003906 51.078125 -49.484375 C 53.453125 -46.972656 55.273438 -44 56.546875 -40.5625 C 57.828125 -37.125 58.46875 -33.347656 58.46875 -29.234375 C 58.46875 -28.453125 58.429688 -27.707031 58.359375 -27 C 58.296875 -26.289062 58.226562 -25.65625 58.15625 -25.09375 C 58.082031 -24.457031 58.007812 -23.890625 57.9375 -23.390625 L 19.140625 -23.390625 C 19.703125 -20.203125 20.941406 -17.539062 22.859375 -15.40625 C 24.773438 -13.28125 27.609375 -12.21875 31.359375 -12.21875 C 34.265625 -12.21875 36.410156 -12.695312 37.796875 -13.65625 C 39.179688 -14.613281 40.40625 -15.910156 41.46875 -17.546875 L 57.40625 -17.546875 C 56.769531 -15.128906 55.796875 -12.804688 54.484375 -10.578125 C 53.171875 -8.347656 51.46875 -6.363281 49.375 -4.625 C 47.289062 -2.882812 44.757812 -1.5 41.78125 -0.46875 C 38.800781 0.550781 35.328125 1.0625 31.359375 1.0625 Z M 43.0625 -34.546875 C 42.769531 -35.753906 42.320312 -36.925781 41.71875 -38.0625 C 41.125 -39.195312 40.347656 -40.222656 39.390625 -41.140625 C 38.429688 -42.066406 37.273438 -42.796875 35.921875 -43.328125 C 34.578125 -43.859375 33.054688 -44.125 31.359375 -44.125 C 27.890625 -44.125 25.179688 -43.203125 23.234375 -41.359375 C 21.285156 -39.515625 19.921875 -37.242188 19.140625 -34.546875 Z M 43.0625 -34.546875 "/></g></g></g><g fill="#000000" fill-opacity="1"><g transform="translate(310.303035, 223.749243)"><g><path d="M 6.375 -56.34375 L 19.140625 -56.34375 L 20.734375 -49.96875 L 21.265625 -49.96875 C 22.816406 -51.8125 24.867188 -53.507812 27.421875 -55.0625 C 29.972656 -56.625 33.234375 -57.40625 37.203125 -57.40625 C 40.816406 -57.40625 44.113281 -56.785156 47.09375 -55.546875 C 50.070312 -54.304688 52.640625 -52.445312 54.796875 -49.96875 C 56.960938 -47.488281 58.644531 -44.421875 59.84375 -40.765625 C 61.050781 -37.117188 61.65625 -32.921875 61.65625 -28.171875 C 61.65625 -23.347656 61.050781 -19.128906 59.84375 -15.515625 C 58.644531 -11.898438 56.960938 -8.851562 54.796875 -6.375 C 52.640625 -3.894531 50.070312 -2.035156 47.09375 -0.796875 C 44.113281 0.441406 40.816406 1.0625 37.203125 1.0625 C 35.078125 1.0625 33.179688 0.832031 31.515625 0.375 C 29.847656 -0.0820312 28.378906 -0.664062 27.109375 -1.375 C 25.835938 -2.082031 24.753906 -2.84375 23.859375 -3.65625 C 22.972656 -4.476562 22.285156 -5.207031 21.796875 -5.84375 L 21.265625 -5.84375 L 21.265625 21.265625 L 6.375 21.265625 Z M 34.015625 -12.21875 C 35.722656 -12.21875 37.351562 -12.519531 38.90625 -13.125 C 40.46875 -13.726562 41.832031 -14.6875 43 -16 C 44.164062 -17.3125 45.085938 -18.976562 45.765625 -21 C 46.441406 -23.019531 46.78125 -25.410156 46.78125 -28.171875 C 46.78125 -30.929688 46.441406 -33.320312 45.765625 -35.34375 C 45.085938 -37.363281 44.164062 -39.03125 43 -40.34375 C 41.832031 -41.65625 40.46875 -42.613281 38.90625 -43.21875 C 37.351562 -43.820312 35.722656 -44.125 34.015625 -44.125 C 32.316406 -44.125 30.6875 -43.820312 29.125 -43.21875 C 27.570312 -42.613281 26.207031 -41.65625 25.03125 -40.34375 C 23.863281 -39.03125 22.941406 -37.363281 22.265625 -35.34375 C 21.597656 -33.320312 21.265625 -30.929688 21.265625 -28.171875 C 21.265625 -25.410156 21.597656 -23.019531 22.265625 -21 C 22.941406 -18.976562 23.863281 -17.3125 25.03125 -16 C 26.207031 -14.6875 27.570312 -13.726562 29.125 -13.125 C 30.6875 -12.519531 32.316406 -12.21875 34.015625 -12.21875 Z M 34.015625 -12.21875 "/></g></g></g><g fill="#000000" fill-opacity="1"><g transform="translate(375.682463, 223.749243)"><g><path d="M 27.109375 1.0625 C 24.054688 1.0625 21.253906 0.550781 18.703125 -0.46875 C 16.160156 -1.5 13.984375 -3.003906 12.171875 -4.984375 C 10.367188 -6.972656 8.953125 -9.367188 7.921875 -12.171875 C 6.890625 -14.972656 6.375 -18.179688 6.375 -21.796875 L 6.375 -56.34375 L 21.265625 -56.34375 L 21.265625 -23.921875 C 21.265625 -20.160156 22.148438 -17.269531 23.921875 -15.25 C 25.691406 -13.226562 28.171875 -12.21875 31.359375 -12.21875 C 34.546875 -12.21875 37.113281 -13.300781 39.0625 -15.46875 C 41.019531 -17.632812 42 -20.453125 42 -23.921875 L 42 -56.34375 L 56.875 -56.34375 L 56.875 0 L 44.125 0 L 42.53125 -6.375 L 42 -6.375 C 40.15625 -3.96875 37.957031 -2.125 35.40625 -0.84375 C 32.851562 0.425781 30.085938 1.0625 27.109375 1.0625 Z M 27.109375 1.0625 "/></g></g></g><g fill="#000000" fill-opacity="1"><g transform="translate(438.935729, 223.749243)"><g><path d="M 6.90625 -74.421875 L 21.796875 -74.421875 L 21.796875 0 L 6.90625 0 Z M 6.90625 -74.421875 "/></g></g></g><g fill="#000000" fill-opacity="1"><g transform="translate(467.638889, 223.749243)"><g><path d="M 27.109375 1.0625 C 22.992188 1.0625 19.445312 0.566406 16.46875 -0.421875 C 13.5 -1.410156 11.019531 -2.753906 9.03125 -4.453125 C 7.050781 -6.160156 5.507812 -8.128906 4.40625 -10.359375 C 3.3125 -12.597656 2.550781 -14.992188 2.125 -17.546875 L 18.078125 -17.546875 C 18.359375 -16.191406 19.257812 -14.960938 20.78125 -13.859375 C 22.300781 -12.765625 24.410156 -12.21875 27.109375 -12.21875 C 30.796875 -12.21875 33.3125 -12.660156 34.65625 -13.546875 C 36 -14.441406 36.671875 -15.421875 36.671875 -16.484375 C 36.671875 -17.898438 35.875 -18.925781 34.28125 -19.5625 C 32.6875 -20.195312 30.6875 -20.757812 28.28125 -21.25 C 25.875 -21.75 23.269531 -22.28125 20.46875 -22.84375 C 17.664062 -23.414062 15.054688 -24.359375 12.640625 -25.671875 C 10.234375 -26.984375 8.234375 -28.789062 6.640625 -31.09375 C 5.046875 -33.394531 4.25 -36.5 4.25 -40.40625 C 4.25 -42.8125 4.742188 -45.039062 5.734375 -47.09375 C 6.734375 -49.144531 8.1875 -50.929688 10.09375 -52.453125 C 12.007812 -53.984375 14.382812 -55.191406 17.21875 -56.078125 C 20.050781 -56.960938 23.347656 -57.40625 27.109375 -57.40625 C 31.078125 -57.40625 34.515625 -56.941406 37.421875 -56.015625 C 40.328125 -55.097656 42.753906 -53.84375 44.703125 -52.25 C 46.648438 -50.65625 48.171875 -48.796875 49.265625 -46.671875 C 50.367188 -44.546875 51.132812 -42.28125 51.5625 -39.875 L 35.609375 -39.875 C 35.328125 -40.9375 34.582031 -41.910156 33.375 -42.796875 C 32.175781 -43.679688 30.085938 -44.125 27.109375 -44.125 C 24.703125 -44.125 22.859375 -43.769531 21.578125 -43.0625 C 20.304688 -42.351562 19.671875 -41.46875 19.671875 -40.40625 C 19.671875 -38.976562 20.46875 -37.945312 22.0625 -37.3125 C 23.65625 -36.675781 25.65625 -36.109375 28.0625 -35.609375 C 30.476562 -35.117188 33.082031 -34.585938 35.875 -34.015625 C 38.675781 -33.453125 41.28125 -32.515625 43.6875 -31.203125 C 46.101562 -29.890625 48.109375 -28.082031 49.703125 -25.78125 C 51.296875 -23.476562 52.09375 -20.378906 52.09375 -16.484375 C 52.09375 -14.210938 51.679688 -12.03125 50.859375 -9.9375 C 50.046875 -7.84375 48.679688 -5.976562 46.765625 -4.34375 C 44.859375 -2.71875 42.289062 -1.410156 39.0625 -0.421875 C 35.84375 0.566406 31.859375 1.0625 27.109375 1.0625 Z M 27.109375 1.0625 "/></g></g></g><g fill="#000000" fill-opacity="1"><g transform="translate(522.387505, 223.749243)"><g><path d="M 31.359375 1.0625 C 27.109375 1.0625 23.28125 0.40625 19.875 -0.90625 C 16.476562 -2.21875 13.570312 -4.113281 11.15625 -6.59375 C 8.75 -9.070312 6.90625 -12.117188 5.625 -15.734375 C 4.351562 -19.347656 3.71875 -23.492188 3.71875 -28.171875 C 3.71875 -32.847656 4.351562 -36.992188 5.625 -40.609375 C 6.90625 -44.222656 8.75 -47.269531 11.15625 -49.75 C 13.570312 -52.226562 16.476562 -54.125 19.875 -55.4375 C 23.28125 -56.75 27.109375 -57.40625 31.359375 -57.40625 C 35.472656 -57.40625 39.191406 -56.710938 42.515625 -55.328125 C 45.847656 -53.953125 48.703125 -52.003906 51.078125 -49.484375 C 53.453125 -46.972656 55.273438 -44 56.546875 -40.5625 C 57.828125 -37.125 58.46875 -33.347656 58.46875 -29.234375 C 58.46875 -28.453125 58.429688 -27.707031 58.359375 -27 C 58.296875 -26.289062 58.226562 -25.65625 58.15625 -25.09375 C 58.082031 -24.457031 58.007812 -23.890625 57.9375 -23.390625 L 19.140625 -23.390625 C 19.703125 -20.203125 20.941406 -17.539062 22.859375 -15.40625 C 24.773438 -13.28125 27.609375 -12.21875 31.359375 -12.21875 C 34.265625 -12.21875 36.410156 -12.695312 37.796875 -13.65625 C 39.179688 -14.613281 40.40625 -15.910156 41.46875 -17.546875 L 57.40625 -17.546875 C 56.769531 -15.128906 55.796875 -12.804688 54.484375 -10.578125 C 53.171875 -8.347656 51.46875 -6.363281 49.375 -4.625 C 47.289062 -2.882812 44.757812 -1.5 41.78125 -0.46875 C 38.800781 0.550781 35.328125 1.0625 31.359375 1.0625 Z M 43.0625 -34.546875 C 42.769531 -35.753906 42.320312 -36.925781 41.71875 -38.0625 C 41.125 -39.195312 40.347656 -40.222656 39.390625 -41.140625 C 38.429688 -42.066406 37.273438 -42.796875 35.921875 -43.328125 C 34.578125 -43.859375 33.054688 -44.125 31.359375 -44.125 C 27.890625 -44.125 25.179688 -43.203125 23.234375 -41.359375 C 21.285156 -39.515625 19.921875 -37.242188 19.140625 -34.546875 Z M 43.0625 -34.546875 "/></g></g></g><g fill="#000000" fill-opacity="1"><g transform="translate(584.577689, 223.749243)"><g><path d="M 28.171875 1.0625 C 24.554688 1.0625 21.257812 0.441406 18.28125 -0.796875 C 15.3125 -2.035156 12.742188 -3.894531 10.578125 -6.375 C 8.410156 -8.851562 6.722656 -11.898438 5.515625 -15.515625 C 4.316406 -19.128906 3.71875 -23.347656 3.71875 -28.171875 C 3.71875 -32.921875 4.316406 -37.117188 5.515625 -40.765625 C 6.722656 -44.421875 8.410156 -47.488281 10.578125 -49.96875 C 12.742188 -52.445312 15.3125 -54.304688 18.28125 -55.546875 C 21.257812 -56.785156 24.554688 -57.40625 28.171875 -57.40625 C 30.296875 -57.40625 32.191406 -57.175781 33.859375 -56.71875 C 35.523438 -56.257812 36.992188 -55.675781 38.265625 -54.96875 C 39.546875 -54.257812 40.609375 -53.492188 41.453125 -52.671875 C 42.304688 -51.859375 43.019531 -51.132812 43.59375 -50.5 L 44.125 -50.5 L 44.125 -74.421875 L 59 -74.421875 L 59 0 L 46.25 0 L 44.65625 -6.375 L 44.125 -6.375 C 43.34375 -5.457031 42.4375 -4.554688 41.40625 -3.671875 C 40.382812 -2.785156 39.234375 -1.988281 37.953125 -1.28125 C 36.679688 -0.570312 35.226562 -0.00390625 33.59375 0.421875 C 31.96875 0.847656 30.160156 1.0625 28.171875 1.0625 Z M 31.359375 -12.21875 C 33.054688 -12.21875 34.6875 -12.519531 36.25 -13.125 C 37.8125 -13.726562 39.175781 -14.6875 40.34375 -16 C 41.507812 -17.3125 42.429688 -18.976562 43.109375 -21 C 43.785156 -23.019531 44.125 -25.410156 44.125 -28.171875 C 44.125 -30.929688 43.785156 -33.320312 43.109375 -35.34375 C 42.429688 -37.363281 41.507812 -39.03125 40.34375 -40.34375 C 39.175781 -41.65625 37.8125 -42.613281 36.25 -43.21875 C 34.6875 -43.820312 33.054688 -44.125 31.359375 -44.125 C 29.660156 -44.125 28.03125 -43.820312 26.46875 -43.21875 C 24.914062 -42.613281 23.550781 -41.65625 22.375 -40.34375 C 21.207031 -39.03125 20.285156 -37.363281 19.609375 -35.34375 C 18.941406 -33.320312 18.609375 -30.929688 18.609375 -28.171875 C 18.609375 -25.410156 18.941406 -23.019531 19.609375 -21 C 20.285156 -18.976562 21.207031 -17.3125 22.375 -16 C 23.550781 -14.6875 24.914062 -13.726562 26.46875 -13.125 C 28.03125 -12.519531 29.660156 -12.21875 31.359375 -12.21875 Z M 31.359375 -12.21875 "/></g></g></g><g fill="#000000" fill-opacity="1"><g transform="translate(650.503548, 223.749243)"><g/></g></g><g fill="#000000" fill-opacity="1"><g transform="translate(15.829745, 370.889945)"><g><path d="M 7.4375 -74.421875 L 39.328125 -74.421875 C 43.015625 -74.421875 46.398438 -73.832031 49.484375 -72.65625 C 52.566406 -71.488281 55.207031 -69.84375 57.40625 -67.71875 C 59.601562 -65.59375 61.300781 -63.023438 62.5 -60.015625 C 63.707031 -57.003906 64.3125 -53.65625 64.3125 -49.96875 C 64.3125 -45.289062 63.492188 -41.441406 61.859375 -38.421875 C 60.234375 -35.410156 58.46875 -33.019531 56.5625 -31.25 C 54.289062 -29.195312 51.738281 -27.640625 48.90625 -26.578125 L 66.984375 0 L 48.90625 0 L 31.890625 -25.515625 L 23.390625 -25.515625 L 23.390625 0 L 7.4375 0 Z M 38.265625 -39.875 C 41.242188 -39.875 43.671875 -40.757812 45.546875 -42.53125 C 47.429688 -44.300781 48.375 -46.78125 48.375 -49.96875 C 48.375 -53.15625 47.429688 -55.632812 45.546875 -57.40625 C 43.671875 -59.175781 41.242188 -60.0625 38.265625 -60.0625 L 23.390625 -60.0625 L 23.390625 -39.875 Z M 38.265625 -39.875 "/></g></g></g><g fill="#000000" fill-opacity="1"><g transform="translate(85.461498, 370.889945)"><g><path d="M 31.359375 1.0625 C 27.109375 1.0625 23.28125 0.40625 19.875 -0.90625 C 16.476562 -2.21875 13.570312 -4.113281 11.15625 -6.59375 C 8.75 -9.070312 6.90625 -12.117188 5.625 -15.734375 C 4.351562 -19.347656 3.71875 -23.492188 3.71875 -28.171875 C 3.71875 -32.847656 4.351562 -36.992188 5.625 -40.609375 C 6.90625 -44.222656 8.75 -47.269531 11.15625 -49.75 C 13.570312 -52.226562 16.476562 -54.125 19.875 -55.4375 C 23.28125 -56.75 27.109375 -57.40625 31.359375 -57.40625 C 35.472656 -57.40625 39.191406 -56.710938 42.515625 -55.328125 C 45.847656 -53.953125 48.703125 -52.003906 51.078125 -49.484375 C 53.453125 -46.972656 55.273438 -44 56.546875 -40.5625 C 57.828125 -37.125 58.46875 -33.347656 58.46875 -29.234375 C 58.46875 -28.453125 58.429688 -27.707031 58.359375 -27 C 58.296875 -26.289062 58.226562 -25.65625 58.15625 -25.09375 C 58.082031 -24.457031 58.007812 -23.890625 57.9375 -23.390625 L 19.140625 -23.390625 C 19.703125 -20.203125 20.941406 -17.539062 22.859375 -15.40625 C 24.773438 -13.28125 27.609375 -12.21875 31.359375 -12.21875 C 34.265625 -12.21875 36.410156 -12.695312 37.796875 -13.65625 C 39.179688 -14.613281 40.40625 -15.910156 41.46875 -17.546875 L 57.40625 -17.546875 C 56.769531 -15.128906 55.796875 -12.804688 54.484375 -10.578125 C 53.171875 -8.347656 51.46875 -6.363281 49.375 -4.625 C 47.289062 -2.882812 44.757812 -1.5 41.78125 -0.46875 C 38.800781 0.550781 35.328125 1.0625 31.359375 1.0625 Z M 43.0625 -34.546875 C 42.769531 -35.753906 42.320312 -36.925781 41.71875 -38.0625 C 41.125 -39.195312 40.347656 -40.222656 39.390625 -41.140625 C 38.429688 -42.066406 37.273438 -42.796875 35.921875 -43.328125 C 34.578125 -43.859375 33.054688 -44.125 31.359375 -44.125 C 27.890625 -44.125 25.179688 -43.203125 23.234375 -41.359375 C 21.285156 -39.515625 19.921875 -37.242188 19.140625 -34.546875 Z M 43.0625 -34.546875 "/></g></g></g><g fill="#000000" fill-opacity="1"><g transform="translate(147.651682, 370.889945)"><g><path d="M 27.109375 1.0625 C 22.992188 1.0625 19.445312 0.566406 16.46875 -0.421875 C 13.5 -1.410156 11.019531 -2.753906 9.03125 -4.453125 C 7.050781 -6.160156 5.507812 -8.128906 4.40625 -10.359375 C 3.3125 -12.597656 2.550781 -14.992188 2.125 -17.546875 L 18.078125 -17.546875 C 18.359375 -16.191406 19.257812 -14.960938 20.78125 -13.859375 C 22.300781 -12.765625 24.410156 -12.21875 27.109375 -12.21875 C 30.796875 -12.21875 33.3125 -12.660156 34.65625 -13.546875 C 36 -14.441406 36.671875 -15.421875 36.671875 -16.484375 C 36.671875 -17.898438 35.875 -18.925781 34.28125 -19.5625 C 32.6875 -20.195312 30.6875 -20.757812 28.28125 -21.25 C 25.875 -21.75 23.269531 -22.28125 20.46875 -22.84375 C 17.664062 -23.414062 15.054688 -24.359375 12.640625 -25.671875 C 10.234375 -26.984375 8.234375 -28.789062 6.640625 -31.09375 C 5.046875 -33.394531 4.25 -36.5 4.25 -40.40625 C 4.25 -42.8125 4.742188 -45.039062 5.734375 -47.09375 C 6.734375 -49.144531 8.1875 -50.929688 10.09375 -52.453125 C 12.007812 -53.984375 14.382812 -55.191406 17.21875 -56.078125 C 20.050781 -56.960938 23.347656 -57.40625 27.109375 -57.40625 C 31.078125 -57.40625 34.515625 -56.941406 37.421875 -56.015625 C 40.328125 -55.097656 42.753906 -53.84375 44.703125 -52.25 C 46.648438 -50.65625 48.171875 -48.796875 49.265625 -46.671875 C 50.367188 -44.546875 51.132812 -42.28125 51.5625 -39.875 L 35.609375 -39.875 C 35.328125 -40.9375 34.582031 -41.910156 33.375 -42.796875 C 32.175781 -43.679688 30.085938 -44.125 27.109375 -44.125 C 24.703125 -44.125 22.859375 -43.769531 21.578125 -43.0625 C 20.304688 -42.351562 19.671875 -41.46875 19.671875 -40.40625 C 19.671875 -38.976562 20.46875 -37.945312 22.0625 -37.3125 C 23.65625 -36.675781 25.65625 -36.109375 28.0625 -35.609375 C 30.476562 -35.117188 33.082031 -34.585938 35.875 -34.015625 C 38.675781 -33.453125 41.28125 -32.515625 43.6875 -31.203125 C 46.101562 -29.890625 48.109375 -28.082031 49.703125 -25.78125 C 51.296875 -23.476562 52.09375 -20.378906 52.09375 -16.484375 C 52.09375 -14.210938 51.679688 -12.03125 50.859375 -9.9375 C 50.046875 -7.84375 48.679688 -5.976562 46.765625 -4.34375 C 44.859375 -2.71875 42.289062 -1.410156 39.0625 -0.421875 C 35.84375 0.566406 31.859375 1.0625 27.109375 1.0625 Z M 27.109375 1.0625 "/></g></g></g><g fill="#000000" fill-opacity="1"><g transform="translate(202.400298, 370.889945)"><g><path d="M 31.359375 1.0625 C 27.109375 1.0625 23.28125 0.40625 19.875 -0.90625 C 16.476562 -2.21875 13.570312 -4.113281 11.15625 -6.59375 C 8.75 -9.070312 6.90625 -12.117188 5.625 -15.734375 C 4.351562 -19.347656 3.71875 -23.492188 3.71875 -28.171875 C 3.71875 -32.847656 4.351562 -36.992188 5.625 -40.609375 C 6.90625 -44.222656 8.75 -47.269531 11.15625 -49.75 C 13.570312 -52.226562 16.476562 -54.125 19.875 -55.4375 C 23.28125 -56.75 27.109375 -57.40625 31.359375 -57.40625 C 35.472656 -57.40625 39.191406 -56.710938 42.515625 -55.328125 C 45.847656 -53.953125 48.703125 -52.003906 51.078125 -49.484375 C 53.453125 -46.972656 55.273438 -44 56.546875 -40.5625 C 57.828125 -37.125 58.46875 -33.347656 58.46875 -29.234375 C 58.46875 -28.453125 58.429688 -27.707031 58.359375 -27 C 58.296875 -26.289062 58.226562 -25.65625 58.15625 -25.09375 C 58.082031 -24.457031 58.007812 -23.890625 57.9375 -23.390625 L 19.140625 -23.390625 C 19.703125 -20.203125 20.941406 -17.539062 22.859375 -15.40625 C 24.773438 -13.28125 27.609375 -12.21875 31.359375 -12.21875 C 34.265625 -12.21875 36.410156 -12.695312 37.796875 -13.65625 C 39.179688 -14.613281 40.40625 -15.910156 41.46875 -17.546875 L 57.40625 -17.546875 C 56.769531 -15.128906 55.796875 -12.804688 54.484375 -10.578125 C 53.171875 -8.347656 51.46875 -6.363281 49.375 -4.625 C 47.289062 -2.882812 44.757812 -1.5 41.78125 -0.46875 C 38.800781 0.550781 35.328125 1.0625 31.359375 1.0625 Z M 43.0625 -34.546875 C 42.769531 -35.753906 42.320312 -36.925781 41.71875 -38.0625 C 41.125 -39.195312 40.347656 -40.222656 39.390625 -41.140625 C 38.429688 -42.066406 37.273438 -42.796875 35.921875 -43.328125 C 34.578125 -43.859375 33.054688 -44.125 31.359375 -44.125 C 27.890625 -44.125 25.179688 -43.203125 23.234375 -41.359375 C 21.285156 -39.515625 19.921875 -37.242188 19.140625 -34.546875 Z M 43.0625 -34.546875 "/></g></g></g><g fill="#000000" fill-opacity="1"><g transform="translate(264.590483, 370.889945)"><g><path d="M 22.859375 1.0625 C 19.804688 1.0625 17.054688 0.617188 14.609375 -0.265625 C 12.171875 -1.148438 10.097656 -2.367188 8.390625 -3.921875 C 6.691406 -5.484375 5.398438 -7.328125 4.515625 -9.453125 C 3.628906 -11.585938 3.1875 -13.929688 3.1875 -16.484375 C 3.1875 -19.035156 3.644531 -21.375 4.5625 -23.5 C 5.488281 -25.625 6.875 -27.460938 8.71875 -29.015625 C 10.5625 -30.578125 12.828125 -31.800781 15.515625 -32.6875 C 18.210938 -33.570312 21.367188 -34.015625 24.984375 -34.015625 L 38.265625 -34.015625 L 38.265625 -36.671875 C 38.265625 -39.367188 37.414062 -41.375 35.71875 -42.6875 C 34.019531 -44 31.679688 -44.65625 28.703125 -44.65625 C 26.578125 -44.65625 24.769531 -44.191406 23.28125 -43.265625 C 21.789062 -42.347656 20.765625 -41.21875 20.203125 -39.875 L 5.3125 -39.875 C 5.8125 -42.132812 6.679688 -44.3125 7.921875 -46.40625 C 9.160156 -48.5 10.753906 -50.359375 12.703125 -51.984375 C 14.648438 -53.617188 16.988281 -54.929688 19.71875 -55.921875 C 22.445312 -56.910156 25.617188 -57.40625 29.234375 -57.40625 C 36.742188 -57.40625 42.609375 -55.597656 46.828125 -51.984375 C 51.046875 -48.367188 53.15625 -43.085938 53.15625 -36.140625 L 53.15625 0 L 40.40625 0 L 38.796875 -6.375 L 38.265625 -6.375 C 37.703125 -5.59375 36.992188 -4.757812 36.140625 -3.875 C 35.296875 -2.988281 34.234375 -2.171875 32.953125 -1.421875 C 31.679688 -0.679688 30.210938 -0.0820312 28.546875 0.375 C 26.878906 0.832031 24.984375 1.0625 22.859375 1.0625 Z M 26.578125 -11.15625 C 30.046875 -11.15625 32.859375 -12.128906 35.015625 -14.078125 C 37.179688 -16.035156 38.265625 -18.609375 38.265625 -21.796875 L 38.265625 -23.390625 L 25.515625 -23.390625 C 22.816406 -23.390625 20.898438 -22.820312 19.765625 -21.6875 C 18.640625 -20.550781 18.078125 -19.171875 18.078125 -17.546875 C 18.078125 -15.703125 18.75 -14.175781 20.09375 -12.96875 C 21.4375 -11.757812 23.597656 -11.15625 26.578125 -11.15625 Z M 26.578125 -11.15625 "/></g></g></g><g fill="#000000" fill-opacity="1"><g transform="translate(323.591424, 370.889945)"><g><path d="M 6.375 -56.34375 L 19.140625 -56.34375 L 20.734375 -49.96875 L 21.265625 -49.96875 C 22.890625 -52.375 24.835938 -54.035156 27.109375 -54.953125 C 29.378906 -55.878906 31.859375 -56.34375 34.546875 -56.34375 L 41.46875 -56.34375 L 41.46875 -42 L 35.609375 -42 C 31.078125 -42 27.550781 -40.753906 25.03125 -38.265625 C 22.519531 -35.785156 21.265625 -32.421875 21.265625 -28.171875 L 21.265625 0 L 6.375 0 Z M 6.375 -56.34375 "/></g></g></g><g fill="#000000" fill-opacity="1"><g transform="translate(366.64618, 370.889945)"><g><path d="M 31.359375 1.0625 C 27.109375 1.0625 23.28125 0.40625 19.875 -0.90625 C 16.476562 -2.21875 13.570312 -4.113281 11.15625 -6.59375 C 8.75 -9.070312 6.90625 -12.117188 5.625 -15.734375 C 4.351562 -19.347656 3.71875 -23.492188 3.71875 -28.171875 C 3.71875 -32.847656 4.351562 -36.992188 5.625 -40.609375 C 6.90625 -44.222656 8.75 -47.269531 11.15625 -49.75 C 13.570312 -52.226562 16.476562 -54.125 19.875 -55.4375 C 23.28125 -56.75 27.109375 -57.40625 31.359375 -57.40625 C 35.328125 -57.40625 38.800781 -56.851562 41.78125 -55.75 C 44.757812 -54.65625 47.289062 -53.171875 49.375 -51.296875 C 51.46875 -49.421875 53.171875 -47.257812 54.484375 -44.8125 C 55.796875 -42.363281 56.769531 -39.828125 57.40625 -37.203125 L 42.53125 -37.203125 C 41.46875 -39.335938 40.082031 -41.023438 38.375 -42.265625 C 36.675781 -43.503906 34.335938 -44.125 31.359375 -44.125 C 27.609375 -44.125 24.546875 -42.789062 22.171875 -40.125 C 19.796875 -37.46875 18.609375 -33.484375 18.609375 -28.171875 C 18.609375 -22.859375 19.796875 -18.867188 22.171875 -16.203125 C 24.546875 -13.546875 27.609375 -12.21875 31.359375 -12.21875 C 34.335938 -12.21875 36.675781 -12.835938 38.375 -14.078125 C 40.082031 -15.328125 41.46875 -17.015625 42.53125 -19.140625 L 57.40625 -19.140625 C 56.769531 -16.441406 55.796875 -13.882812 54.484375 -11.46875 C 53.171875 -9.0625 51.46875 -6.921875 49.375 -5.046875 C 47.289062 -3.171875 44.757812 -1.679688 41.78125 -0.578125 C 38.800781 0.515625 35.328125 1.0625 31.359375 1.0625 Z M 31.359375 1.0625 "/></g></g></g><g fill="#000000" fill-opacity="1"><g transform="translate(427.241742, 370.889945)"><g><path d="M 6.90625 -74.421875 L 21.796875 -74.421875 L 21.796875 -50.5 L 22.328125 -50.5 C 24.171875 -52.625 26.222656 -54.304688 28.484375 -55.546875 C 30.753906 -56.785156 33.484375 -57.40625 36.671875 -57.40625 C 39.722656 -57.40625 42.523438 -56.890625 45.078125 -55.859375 C 47.628906 -54.835938 49.804688 -53.332031 51.609375 -51.34375 C 53.421875 -49.363281 54.835938 -46.972656 55.859375 -44.171875 C 56.890625 -41.367188 57.40625 -38.160156 57.40625 -34.546875 L 57.40625 0 L 42.53125 0 L 42.53125 -32.421875 C 42.53125 -36.179688 41.640625 -39.070312 39.859375 -41.09375 C 38.085938 -43.113281 35.609375 -44.125 32.421875 -44.125 C 29.234375 -44.125 26.664062 -43.039062 24.71875 -40.875 C 22.769531 -38.71875 21.796875 -35.898438 21.796875 -32.421875 L 21.796875 0 L 6.90625 0 Z M 6.90625 -74.421875 "/></g></g></g><g fill="#000000" fill-opacity="1"><g transform="translate(490.495008, 370.889945)"><g><path d="M 31.359375 1.0625 C 27.109375 1.0625 23.28125 0.40625 19.875 -0.90625 C 16.476562 -2.21875 13.570312 -4.113281 11.15625 -6.59375 C 8.75 -9.070312 6.90625 -12.117188 5.625 -15.734375 C 4.351562 -19.347656 3.71875 -23.492188 3.71875 -28.171875 C 3.71875 -32.847656 4.351562 -36.992188 5.625 -40.609375 C 6.90625 -44.222656 8.75 -47.269531 11.15625 -49.75 C 13.570312 -52.226562 16.476562 -54.125 19.875 -55.4375 C 23.28125 -56.75 27.109375 -57.40625 31.359375 -57.40625 C 35.472656 -57.40625 39.191406 -56.710938 42.515625 -55.328125 C 45.847656 -53.953125 48.703125 -52.003906 51.078125 -49.484375 C 53.453125 -46.972656 55.273438 -44 56.546875 -40.5625 C 57.828125 -37.125 58.46875 -33.347656 58.46875 -29.234375 C 58.46875 -28.453125 58.429688 -27.707031 58.359375 -27 C 58.296875 -26.289062 58.226562 -25.65625 58.15625 -25.09375 C 58.082031 -24.457031 58.007812 -23.890625 57.9375 -23.390625 L 19.140625 -23.390625 C 19.703125 -20.203125 20.941406 -17.539062 22.859375 -15.40625 C 24.773438 -13.28125 27.609375 -12.21875 31.359375 -12.21875 C 34.265625 -12.21875 36.410156 -12.695312 37.796875 -13.65625 C 39.179688 -14.613281 40.40625 -15.910156 41.46875 -17.546875 L 57.40625 -17.546875 C 56.769531 -15.128906 55.796875 -12.804688 54.484375 -10.578125 C 53.171875 -8.347656 51.46875 -6.363281 49.375 -4.625 C 47.289062 -2.882812 44.757812 -1.5 41.78125 -0.46875 C 38.800781 0.550781 35.328125 1.0625 31.359375 1.0625 Z M 43.0625 -34.546875 C 42.769531 -35.753906 42.320312 -36.925781 41.71875 -38.0625 C 41.125 -39.195312 40.347656 -40.222656 39.390625 -41.140625 C 38.429688 -42.066406 37.273438 -42.796875 35.921875 -43.328125 C 34.578125 -43.859375 33.054688 -44.125 31.359375 -44.125 C 27.890625 -44.125 25.179688 -43.203125 23.234375 -41.359375 C 21.285156 -39.515625 19.921875 -37.242188 19.140625 -34.546875 Z M 43.0625 -34.546875 "/></g></g></g><g fill="#000000" fill-opacity="1"><g transform="translate(552.685162, 370.889945)"><g><path d="M 6.375 -56.34375 L 19.140625 -56.34375 L 20.734375 -49.96875 L 21.265625 -49.96875 C 22.890625 -52.375 24.835938 -54.035156 27.109375 -54.953125 C 29.378906 -55.878906 31.859375 -56.34375 34.546875 -56.34375 L 41.46875 -56.34375 L 41.46875 -42 L 35.609375 -42 C 31.078125 -42 27.550781 -40.753906 25.03125 -38.265625 C 22.519531 -35.785156 21.265625 -32.421875 21.265625 -28.171875 L 21.265625 0 L 6.375 0 Z M 6.375 -56.34375 "/></g></g></g><g fill="#000000" fill-opacity="1"><g transform="translate(595.739918, 370.889945)"><g><path d="M 27.109375 1.0625 C 22.992188 1.0625 19.445312 0.566406 16.46875 -0.421875 C 13.5 -1.410156 11.019531 -2.753906 9.03125 -4.453125 C 7.050781 -6.160156 5.507812 -8.128906 4.40625 -10.359375 C 3.3125 -12.597656 2.550781 -14.992188 2.125 -17.546875 L 18.078125 -17.546875 C 18.359375 -16.191406 19.257812 -14.960938 20.78125 -13.859375 C 22.300781 -12.765625 24.410156 -12.21875 27.109375 -12.21875 C 30.796875 -12.21875 33.3125 -12.660156 34.65625 -13.546875 C 36 -14.441406 36.671875 -15.421875 36.671875 -16.484375 C 36.671875 -17.898438 35.875 -18.925781 34.28125 -19.5625 C 32.6875 -20.195312 30.6875 -20.757812 28.28125 -21.25 C 25.875 -21.75 23.269531 -22.28125 20.46875 -22.84375 C 17.664062 -23.414062 15.054688 -24.359375 12.640625 -25.671875 C 10.234375 -26.984375 8.234375 -28.789062 6.640625 -31.09375 C 5.046875 -33.394531 4.25 -36.5 4.25 -40.40625 C 4.25 -42.8125 4.742188 -45.039062 5.734375 -47.09375 C 6.734375 -49.144531 8.1875 -50.929688 10.09375 -52.453125 C 12.007812 -53.984375 14.382812 -55.191406 17.21875 -56.078125 C 20.050781 -56.960938 23.347656 -57.40625 27.109375 -57.40625 C 31.078125 -57.40625 34.515625 -56.941406 37.421875 -56.015625 C 40.328125 -55.097656 42.753906 -53.84375 44.703125 -52.25 C 46.648438 -50.65625 48.171875 -48.796875 49.265625 -46.671875 C 50.367188 -44.546875 51.132812 -42.28125 51.5625 -39.875 L 35.609375 -39.875 C 35.328125 -40.9375 34.582031 -41.910156 33.375 -42.796875 C 32.175781 -43.679688 30.085938 -44.125 27.109375 -44.125 C 24.703125 -44.125 22.859375 -43.769531 21.578125 -43.0625 C 20.304688 -42.351562 19.671875 -41.46875 19.671875 -40.40625 C 19.671875 -38.976562 20.46875 -37.945312 22.0625 -37.3125 C 23.65625 -36.675781 25.65625 -36.109375 28.0625 -35.609375 C 30.476562 -35.117188 33.082031 -34.585938 35.875 -34.015625 C 38.675781 -33.453125 41.28125 -32.515625 43.6875 -31.203125 C 46.101562 -29.890625 48.109375 -28.082031 49.703125 -25.78125 C 51.296875 -23.476562 52.09375 -20.378906 52.09375 -16.484375 C 52.09375 -14.210938 51.679688 -12.03125 50.859375 -9.9375 C 50.046875 -7.84375 48.679688 -5.976562 46.765625 -4.34375 C 44.859375 -2.71875 42.289062 -1.410156 39.0625 -0.421875 C 35.84375 0.566406 31.859375 1.0625 27.109375 1.0625 Z M 27.109375 1.0625 "/></g></g></g><g fill="#000000" fill-opacity="1"><g transform="translate(650.503548, 370.889945)"><g/></g></g></svg>